name analog
datacolumns 19
datarows 18
range 0.4195 0.428
endheader
time	ground_force_vx	ground_force_vy	ground_force_vz	ground_force_px	ground_force_py	ground_force_pz	l_ground_force_vx	l_ground_force_vy	l_ground_force_vz	l_ground_force_px	l_ground_force_py	l_ground_force_pz	ground_torque_x	ground_torque_y	ground_torque_z	l_ground_torque_x	l_ground_torque_y	l_ground_torque_z
0.4195	-0.0	-0.0	-0.0	-9.958243370056152	56.310829162597656	-369.9889831542969	2.431181669235229	-58.52396774291992	-444.4600524902344	-0.0	-0.0	-0.0	-0.0	-0.0	-0.0	119082.2421875	-23521.515625	-4296.79248046875
0.42	-0.0	-0.0	-0.0	-9.651329040527344	56.63408279418945	-369.2948303222656	2.270453691482544	-58.57386016845703	-444.8847351074219	-0.0	-0.0	-0.0	-0.0	-0.0	-0.0	119151.328125	-23393.857421875	-4284.88427734375
0.4205	-0.0	-0.0	-0.0	-9.902366638183594	56.26108932495117	-368.5890502929688	2.0569326877593994	-58.43593215942383	-443.0734252929688	-0.0	-0.0	-0.0	-0.0	-0.0	-0.0	118915.3671875	-23497.11328125	-4336.84814453125
0.421	-0.0	-0.0	-0.0	-10.434195518493652	56.04656982421875	-367.7254943847656	1.8494186401367188	-57.95549011230469	-441.7418518066406	-0.0	-0.0	-0.0	-0.0	-0.0	-0.0	118496.1328125	-23358.109375	-4291.56689453125
0.4215	-0.0	-0.0	-0.0	-10.827262878417969	56.201297760009766	-367.0331726074219	1.9516372680664065	-58.135250091552734	-440.0084533691406	-0.0	-0.0	-0.0	-0.0	-0.0	-0.0	118331.40625	-23305.58984375	-4379.49609375
0.422	-0.0	-0.0	-0.0	-10.701462745666504	55.852149963378906	-367.6452941894531	2.2177696228027344	-57.530052185058594	-441.0563354492188	-0.0	-0.0	-0.0	-0.0	-0.0	-0.0	118061.5234375	-23301.37890625	-4136.3369140625
0.4225	-0.0	-0.0	-0.0	-10.47800350189209	55.60110855102539	-365.541259765625	2.2177696228027344	-57.30450820922852	-439.2970581054688	-0.0	-0.0	-0.0	-0.0	-0.0	-0.0	118150.3125	-23327.83984375	-4207.70849609375
0.423	-0.0	-0.0	-0.0	-10.295710563659668	55.439109802246094	-365.8140869140625	2.355273723602295	-57.39290618896485	-438.1212463378906	-0.0	-0.0	-0.0	-0.0	-0.0	-0.0	117682.7578125	-23550.921875	-4106.5400390625
0.4235	-0.0	-0.0	-0.0	-10.32801342010498	55.64960861206055	-366.2306823730469	2.399066686630249	-57.16411209106445	-437.4079895019531	-0.0	-0.0	-0.0	-0.0	-0.0	-0.0	117696.6328125	-23665.02734375	-3940.591552734375
0.424	-0.0	-0.0	-0.0	-9.902366638183594	54.997859954833984	-361.6100463867188	2.2217581272125244	-56.68247604370117	-436.3760070800781	-0.0	-0.0	-0.0	-0.0	-0.0	-0.0	117165.203125	-23582.541015625	-4010.729736328125
0.4245	-0.0	-0.0	-0.0	-9.92296028137207	54.479251861572266	-363.1957092285156	2.0808358192443848	-56.52587890625	-436.1536254882813	-0.0	-0.0	-0.0	-0.0	-0.0	-0.0	117303.4609375	-23706.7578125	-3963.570068359375
0.425	-0.0	-0.0	-0.0	-9.692075729370115	54.13399887084961	-362.3626098632813	1.955988049507141	-56.43756103515625	-436.9489135742188	-0.0	-0.0	-0.0	-0.0	-0.0	-0.0	117815.4296875	-23880.359375	-3857.1123046875
0.4255	-0.0	-0.0	-0.0	-9.456314086914062	54.42204666137695	-362.4448852539063	2.0926783084869385	-56.562103271484375	-437.7557373046875	-0.0	-0.0	-0.0	-0.0	-0.0	-0.0	118188.65625	-24366.548828125	-3832.707763671875
0.426	-0.0	-0.0	-0.0	-8.905241012573242	53.93968963623047	-361.3031005859375	2.536195993423462	-56.84291076660156	-440.2618408203125	-0.0	-0.0	-0.0	-0.0	-0.0	-0.0	118353.234375	-24344.37109375	-3631.647216796875
0.4265	-0.0	-0.0	-0.0	-8.406787872314453	53.556907653808594	-360.1189270019531	2.677128314971924	-56.65049743652344	-438.7401123046875	-0.0	-0.0	-0.0	-0.0	-0.0	-0.0	118524.2265625	-24286.029296875	-3488.462890625
0.427	-0.0	-0.0	-0.0	-8.795073509216309	53.84017562866211	-359.53717041015625	2.6978068351745605	-56.50523376464844	-437.8981323242188	-0.0	-0.0	-0.0	-0.0	-0.0	-0.0	118605.0	-24592.736328125	-3509.195556640625
0.4275	-0.0	-0.0	-0.0	-8.474998474121094	53.80356597900391	-360.4510498046875	2.5882930755615234	-56.51027297973633	-438.6578674316406	-0.0	-0.0	-0.0	-0.0	-0.0	-0.0	118306.59375	-24530.208984375	-3453.54150390625
0.428	-0.0	-0.0	-0.0	-8.044485092163086	52.97450637817383	-359.53717041015625	2.076899528503418	-56.24006271362305	-439.0888671875	-0.0	-0.0	-0.0	-0.0	-0.0	-0.0	118412.390625	-24637.138671875	-3399.7275390625
